<?xml version="1.0" encoding="utf-8"?>
<!-- Generator: Adobe Illustrator 24.3.0, SVG Export Plug-In . SVG Version: 6.00 Build 0)  -->
<svg version="1.1" id="Слой_1" xmlns="http://www.w3.org/2000/svg" xmlns:xlink="http://www.w3.org/1999/xlink" x="0px" y="0px"
	 viewBox="0 0 1920 1080" style="enable-background:new 0 0 1920 1080;" xml:space="preserve">
<style type="text/css">
	.st0{fill:#FBFDFD;}
	.st1{fill:#49B8CE;}
	.st2{fill:#38B2CA;}
	.st3{fill:#3EB5CB;}
</style>
<g>
	<g>
		<path class="st0" d="M966.29,527.2c7.82,0,7.82,0,7.82,8.06c0,4.37,0,8.73,0,13.1c-4.23,0-8.47,0-12.7,0
			c-3.58,0-8.56,1.44-10.35-0.41s-0.39-6.98-0.39-10.68c0-0.67,0-1.34,0-2.02c0-8.06,0-8.06,7.82-8.06
			c0.49,1.46-0.85,1.59-1.53,2.06c-3.48,2.35-4.99,5.65-4.24,9.82c0.72,3.97,3.23,6.36,7.06,7.24c6.71,2.22,13.99-3.57,12.28-11.22
			c-0.3-1.33-0.67-2.83-2.07-3.13c-1.4-0.3-1.68,1.3-2.25,2.24c-0.86,1.42-1.81,2.77-2.59,4.24c-1.29,2.45-3.02,2.75-5.08,0.94
			c1.77,2.53,3.41,2.07,4.81-0.35c0.92-1.58,1.8-3.18,2.84-4.67c0.62-0.88,0.82-2.48,2.32-2.13c1.49,0.35,1.74,1.84,2,3.15
			c1.23,6.38-3.08,11.05-10.27,11.11c-5.42-0.9-8.42-3.32-9.05-7.48c-0.63-4.21,0.85-7.47,4.38-9.74c2.22-1.43,4.67-0.99,7.05-1.07
			C964.76,527.66,966.58,529.78,966.29,527.2z"/>
		<path class="st1" d="M959.52,547.13c-4.69-1.03-7.33-4.16-7.88-8.92c-0.63-5.45,2.8-8.5,6.84-11.01c0.33,0,0.65,0,0.98,0
			c1.64,1.61,4.49-1.05,5.81,1.74c-1.3,0.02-2.6-0.03-3.89,0.06c-4.5,0.32-7.49,3.1-7.89,7.3c-0.44,4.62,1.92,7.99,6.44,9.16
			c0.94,0.24,1.89,0.45,2.83,0.68C961.95,547.42,960.49,546.43,959.52,547.13z"/>
		<path class="st2" d="M965.25,528.94c-1.62-1.71-4.28,0.3-5.81-1.74c2.28,0,4.56,0,6.84,0c0.44,0.57,1.38,1.41,1.25,1.66
			C966.95,529.98,966.05,529.14,965.25,528.94z"/>
		<path class="st3" d="M959.52,547.13c0.87-1.03,2.14-0.67,3.22-1c8.06-2.08,10.43-6.29,7.1-13.53c-1.51,2.45-2.87,4.65-4.23,6.85
			c-3,4.84-3.64,4.85-6.84-0.02c-0.51-0.78-0.9-1.65-1.36-2.53c0.55-0.17,0.97-0.41,1.08-0.31c4.38,3.92,4.26,3.85,7.68-1.39
			c1.13-1.74,1.55-5.52,4.15-4.49c2.57,1.02,3.05,4.47,2.86,7.46C972.76,544.58,967.75,547.87,959.52,547.13z"/>
	</g>
</g>
</svg>
